<!--?xml version="1.0" standalone="no"?-->
              <svg id="sw-js-blob-svg" viewBox="0 0 100 100" xmlns="http://www.w3.org/2000/svg" version="1.1">
                    <defs> 
                        <linearGradient id="sw-gradient" x1="0" x2="1" y1="1" y2="0">
                            <stop id="stop1" stop-color="rgba(255, 228, 39, 1)" offset="0%"></stop>
                            <stop id="stop2" stop-color="rgba(255, 228, 39, 1)" offset="100%"></stop>
                        </linearGradient>
                    </defs>
                <path fill="url(#sw-gradient)" d="M22.3,-36.8C28.8,-34.9,33.9,-28.7,37.5,-21.8C41,-15,43.1,-7.5,43.5,0.2C43.9,7.9,42.5,15.8,37.8,20.8C33.1,25.7,25.1,27.7,18.3,30.9C11.4,34.2,5.7,38.7,-0.6,39.7C-6.8,40.6,-13.6,38,-19.4,34.1C-25.1,30.2,-29.9,25.1,-33.4,19.2C-36.9,13.3,-39.2,6.7,-39.4,-0.1C-39.5,-6.8,-37.5,-13.6,-33.6,-18.9C-29.7,-24.1,-23.9,-27.7,-18,-29.9C-12.1,-32.1,-6,-32.8,0.9,-34.4C7.9,-36,15.8,-38.6,22.3,-36.8Z" width="100%" height="100%" transform="translate(50 50)" stroke-width="0" style="transition: 0.3s;" stroke="url(#sw-gradient)"></path>
              </svg>